<?xml version="1.0" encoding="UTF-8" standalone="no"?>
<!-- Created with Inkscape (http://www.inkscape.org/) -->

<svg
   xmlns:dc="http://purl.org/dc/elements/1.1/"
   xmlns:cc="http://creativecommons.org/ns#"
   xmlns:rdf="http://www.w3.org/1999/02/22-rdf-syntax-ns#"
   xmlns:svg="http://www.w3.org/2000/svg"
   xmlns="http://www.w3.org/2000/svg"
   xmlns:sodipodi="http://sodipodi.sourceforge.net/DTD/sodipodi-0.dtd"
   xmlns:inkscape="http://www.inkscape.org/namespaces/inkscape"
   width="744.09448819"
   height="1052.3622047"
   id="svg2"
   version="1.1"
   inkscape:version="0.48.2 r9819"
   sodipodi:docname="New document 1">
  <defs
     id="defs4" />
  <sodipodi:namedview
     id="base"
     pagecolor="#ffffff"
     bordercolor="#666666"
     borderopacity="1.0"
     inkscape:pageopacity="0.0"
     inkscape:pageshadow="2"
     inkscape:zoom="0.49497475"
     inkscape:cx="406.03917"
     inkscape:cy="511.0369"
     inkscape:document-units="px"
     inkscape:current-layer="layer1"
     showgrid="false"
     showguides="true"
     inkscape:guide-bbox="true"
     inkscape:window-width="1244"
     inkscape:window-height="733"
     inkscape:window-x="0"
     inkscape:window-y="0"
     inkscape:window-maximized="0" />
  <metadata
     id="metadata7">
    <rdf:RDF>
      <cc:Work
         rdf:about="">
        <dc:format>image/svg+xml</dc:format>
        <dc:type
           rdf:resource="http://purl.org/dc/dcmitype/StillImage" />
        <dc:title></dc:title>
      </cc:Work>
    </rdf:RDF>
  </metadata>
  <g
     inkscape:label="Layer 1"
     inkscape:groupmode="layer"
     id="layer1">
    <path
       style="fill:#000000;stroke:none"
       d="m -27.428572,793.64732 0,100.15625 15,0 0,-50 30,0 0,50 15,0 0,-100.15625 -60,0 z m 15.03125,13.65625 29.9375,0 0,19.96875 -29.9375,0 0,-19.96875 z"
       id="path2987"
       inkscape:connector-curvature="0" />
    <path
       style="fill:none;stroke:#000000;stroke-width:1px;stroke-linecap:butt;stroke-linejoin:miter;stroke-opacity:1"
       d="m 854.28586,893.29075 -961.42857,0 894.28571,0"
       id="path2989"
       inkscape:connector-curvature="0"
       sodipodi:nodetypes="ccc" />
    <path
       style="fill:none;stroke:#000000;stroke-width:1px;stroke-linecap:butt;stroke-linejoin:miter;stroke-opacity:1"
       d="m 858.28572,793.29075 -962.85715,0"
       id="path2993"
       inkscape:connector-curvature="0"
       sodipodi:nodetypes="cc" />
    <path
       style="fill:#000000;stroke:none"
       d="m 50.415178,793.02232 0,100.125 15,0 0,-50 10.71875,0 22.15625,50 18.218752,0.1875 -23.937502,-49.9375 24.281252,0.0937 0,-50.46875 -66.437502,0 z m 15.03125,13.625 36.031252,0 0,19.96875 -36.031252,0 0,-19.96875 z"
       id="path2987-3"
       inkscape:connector-curvature="0" />
    <path
       style="fill:#000000;stroke:none"
       d="m 133.92857,807.07022 0,-14.05895 60,0 0,14.05895 L 175,806.71308 l 1.07143,86.07143 -21.78572,0.35714 0,-85.71429 z"
       id="path2987-1"
       inkscape:connector-curvature="0"
       sodipodi:nodetypes="ccccccccc" />
    <path
       style="fill:#000000;stroke:none"
       d="m 207.85268,793.02232 0,99.75 60,0 0,-85.6875 -25.71875,-14.0625 -34.28125,0 z m 12.5,16.125 22.15625,0 8.90625,8.9375 0,57.5 -30,0 c 0,0 -0.86624,-66.4115 -1.0625,-66.4375 z"
       id="path2987-1-6"
       inkscape:connector-curvature="0" />
    <path
       style="opacity:0.98000004;fill:#000000;fill-opacity:1;stroke:none"
       d="m 287.85268,793.08482 0,99.09375 63.5,0 0,-99.09375 -63.5,0 z m 16.6875,18.375 30.8125,0 0,61.625 -30.8125,0 0,-61.625 z"
       id="rect3841"
       inkscape:connector-curvature="0" />
    <path
       style="fill:#000000;stroke:none"
       d="m 366.97768,793.70982 0,100.125 15,0 0,-50 44.65625,0 0.34375,-50.125 -60,0 z m 15.03125,13.65625 29.96875,0 0,19.96875 -29.96875,0 0,-19.96875 z"
       id="path2987-0"
       inkscape:connector-curvature="0" />
    <path
       style="fill:#000000;stroke:none"
       d="m 446.48021,793.78055 1.01015,98.99495 64.14469,0 -2.0203,-22.22336 -44.44672,-1.01015 0,-15.65736 44.95179,0 -0.50507,-19.69798 -44.95179,-0.50508 0,-20.70812 45.96194,1.01015 -1.01015,-21.2132 z"
       id="path3866"
       inkscape:connector-curvature="0" />
    <path
       style="fill:#000000;stroke:none"
       d="m 535.37364,871.05722 0,21.71828 20.20305,-0.50508 -0.50508,-21.2132 z"
       id="path3868"
       inkscape:connector-curvature="0" />
    <path
       style="fill:#000000;stroke:none"
       d="m 572.2442,792.7704 0,100.0051 73.74114,0.50507 -0.50508,-22.22335 -53.03301,0 0,-60.10408 51.01271,0 0,-18.18274 z"
       id="path3870"
       inkscape:connector-curvature="0" />
    <path
       style="opacity:0.98000004;fill:#000000;fill-opacity:1;stroke:none"
       d="m 663.29018,793.70982 0,99.125 63.5,0 0,-99.125 -63.5,0 z m 16.6875,18.40625 30.8125,0 0,61.59375 -30.8125,0 0,-61.59375 z"
       id="rect3841-3"
       inkscape:connector-curvature="0" />
    <path
       style="fill:#000000;stroke:none"
       d="m 843.97524,792.51785 -98.99495,1.01015 0.50508,98.99495 21.71828,0.50508 1.01015,-81.82236 15.65736,0 0.50508,81.31728 19.1929,10e-6 0.50508,-81.82236 20.70812,0 -1.51523,82.83251 20.20305,0 z"
       id="path3866-3"
       inkscape:connector-curvature="0"
       sodipodi:nodetypes="ccccccccccccc" />
    <path
       style="fill:#000000;stroke:none"
       d="m -30.142934,579.97603 0,100.15625 15,0 0,-50 30.000002,0 0,50 15,0 0,-100.15625 -60.000002,0 z m 15.03125,13.65625 29.937502,0 0,19.96875 -29.937502,0 0,-19.96875 z"
       id="path2987-9"
       inkscape:connector-curvature="0" />
    <path
       style="fill:none;stroke:#000000;stroke-width:1px;stroke-linecap:butt;stroke-linejoin:miter;stroke-opacity:1"
       d="m 851.5715,679.61946 -961.42857,0 894.28571,0"
       id="path2989-1"
       inkscape:connector-curvature="0"
       sodipodi:nodetypes="ccc" />
    <path
       style="fill:none;stroke:#000000;stroke-width:1px;stroke-linecap:butt;stroke-linejoin:miter;stroke-opacity:1"
       d="m 855.57136,579.61946 -962.85715,0"
       id="path2993-7"
       inkscape:connector-curvature="0"
       sodipodi:nodetypes="cc" />
    <path
       style="fill:#000000;stroke:none"
       d="m 47.700817,579.35103 0,100.125 15,0 0,-50 10.71875,0 22.15625,50 18.218753,0.1875 -23.937503,-49.9375 24.281253,0.0937 0,-50.46875 -66.437503,0 z m 15.03125,13.625 36.03125,0 0,19.96875 -36.03125,0 0,-19.96875 z"
       id="path2987-3-9"
       inkscape:connector-curvature="0" />
    <path
       style="fill:#000000;stroke:none"
       d="m 131.21421,593.39893 0,-14.05895 60,0 0,14.05895 -18.92857,-0.35714 1.07143,86.07143 -21.78572,0.35714 0,-85.71429 z"
       id="path2987-1-66"
       inkscape:connector-curvature="0"
       sodipodi:nodetypes="ccccccccc" />
    <path
       style="fill:#000000;stroke:none"
       d="m 205.13832,579.35103 0,99.75 60,0 0,-85.6875 -25.71875,-14.0625 -34.28125,0 z m 12.5,16.125 22.15625,0 8.90625,8.9375 0,57.5 -30,0 c 0,0 -0.86624,-66.4115 -1.0625,-66.4375 z"
       id="path2987-1-6-6"
       inkscape:connector-curvature="0" />
    <path
       style="opacity:0.98000004;fill:#000000;fill-opacity:1;stroke:none"
       d="m 285.13832,579.41353 0,99.09375 63.5,0 0,-99.09375 -63.5,0 z m 16.6875,18.375 30.8125,0 0,61.625 -30.8125,0 0,-61.625 z"
       id="rect3841-4"
       inkscape:connector-curvature="0" />
    <path
       style="fill:#000000;stroke:none"
       d="m 364.26332,580.03853 0,100.125 15,0 0,-50 44.65625,0 0.34375,-50.125 -60,0 z m 15.03125,13.65625 29.96875,0 0,19.96875 -29.96875,0 0,-19.96875 z"
       id="path2987-0-4"
       inkscape:connector-curvature="0" />
    <path
       style="fill:#000000;stroke:none"
       d="m 443.76585,580.10926 1.01015,98.99495 64.14469,0 -2.0203,-22.22336 -44.44672,-1.01015 0,-15.65736 44.95179,0 -0.50507,-19.69798 -44.95179,-0.50508 0,-20.70812 45.96194,1.01015 -1.01015,-21.2132 z"
       id="path3866-4"
       inkscape:connector-curvature="0" />
    <path
       style="fill:#000000;stroke:none"
       d="m 532.65928,657.38593 0,21.71828 20.20305,-0.50508 -0.50508,-21.2132 z"
       id="path3868-5"
       inkscape:connector-curvature="0" />
    <path
       style="fill:#000000;stroke:none"
       d="m 569.52984,579.09911 0,100.0051 73.74114,0.50507 -0.50508,-22.22335 -53.03301,0 0,-60.10408 51.01271,0 0,-18.18274 z"
       id="path3870-7"
       inkscape:connector-curvature="0" />
    <path
       style="opacity:0.98000004;fill:#000000;fill-opacity:1;stroke:none"
       d="m 660.57582,580.03853 0,99.125 63.5,0 0,-99.125 -63.5,0 z m 16.6875,18.40625 30.8125,0 0,61.59375 -30.8125,0 0,-61.59375 z"
       id="rect3841-3-6"
       inkscape:connector-curvature="0" />
    <path
       style="fill:#000000;stroke:none"
       d="m 841.26088,578.84656 -98.99495,1.01015 0.50508,98.99495 21.71828,0.50508 1.01015,-81.82236 15.65736,0 0.50508,81.31728 19.1929,10e-6 0.50508,-81.82236 20.70812,0 -1.51523,82.83251 20.20305,0 z"
       id="path3866-3-7"
       inkscape:connector-curvature="0"
       sodipodi:nodetypes="ccccccccccccc" />
    <flowRoot
       xml:space="preserve"
       id="flowRoot3971"
       style="font-size:40px;font-style:normal;font-weight:normal;line-height:125%;letter-spacing:0px;word-spacing:0px;fill:#000000;fill-opacity:1;stroke:none;font-family:Sans"
       transform="translate(71.428571,40)"><flowRegion
         id="flowRegion3973"><rect
           id="rect3975"
           width="583.86816"
           height="129.29953"
           x="48.487324"
           y="323.03204" /></flowRegion><flowPara
         id="flowPara3977"
         style="font-style:normal;font-variant:normal;font-weight:800;font-stretch:normal;font-family:Hiragino Kaku Gothic StdN;-inkscape-font-specification:Hiragino Kaku Gothic StdN Ultra-Bold">ARTDOPE.COM</flowPara></flowRoot>  </g>
</svg>
