<?xml version="1.0" encoding="UTF-8" standalone="no"?>
<!-- Created with Inkscape (http://www.inkscape.org/) -->

<svg
   xmlns:dc="http://purl.org/dc/elements/1.1/"
   xmlns:cc="http://creativecommons.org/ns#"
   xmlns:rdf="http://www.w3.org/1999/02/22-rdf-syntax-ns#"
   xmlns:svg="http://www.w3.org/2000/svg"
   xmlns="http://www.w3.org/2000/svg"
   xmlns:sodipodi="http://sodipodi.sourceforge.net/DTD/sodipodi-0.dtd"
   xmlns:inkscape="http://www.inkscape.org/namespaces/inkscape"
   width="744.09448819"
   height="1052.3622047"
   id="svg2"
   version="1.1"
   inkscape:version="0.48.2 r9819"
   sodipodi:docname="New document 1">
  <defs
     id="defs4">
    <filter
       inkscape:collect="always"
       id="filter4178"
       x="-0.036229949"
       width="1.0724599"
       y="-0.11452315"
       height="1.2290463">
      <feGaussianBlur
         inkscape:collect="always"
         stdDeviation="4.7726528"
         id="feGaussianBlur4180" />
    </filter>
  </defs>
  <sodipodi:namedview
     id="base"
     pagecolor="#ffffff"
     bordercolor="#666666"
     borderopacity="1.0"
     inkscape:pageopacity="0.0"
     inkscape:pageshadow="2"
     inkscape:zoom="0.24748737"
     inkscape:cx="311.90679"
     inkscape:cy="592.90416"
     inkscape:document-units="px"
     inkscape:current-layer="layer1"
     showgrid="false"
     inkscape:window-width="1161"
     inkscape:window-height="728"
     inkscape:window-x="50"
     inkscape:window-y="0"
     inkscape:window-maximized="0" />
  <metadata
     id="metadata7">
    <rdf:RDF>
      <cc:Work
         rdf:about="">
        <dc:format>image/svg+xml</dc:format>
        <dc:type
           rdf:resource="http://purl.org/dc/dcmitype/StillImage" />
        <dc:title></dc:title>
      </cc:Work>
    </rdf:RDF>
  </metadata>
  <g
     inkscape:label="Layer 1"
     inkscape:groupmode="layer"
     id="layer1">
    <path
       style="fill:#2a7fff;stroke:none"
       d="m 224.5888,385.68181 c 0,0 -49.90178,44.12914 -50,83.09663 -0.0982,38.96749 50,233.06082 50,233.06082 0,0 51.10838,-191.06287 50,-233.06082 -1.10838,-41.99795 -50,-83.09663 -50,-83.09663 z"
       id="path2985"
       inkscape:connector-curvature="0"
       sodipodi:nodetypes="czczc" />
    <path
       style="fill:#ab37c8;stroke:none"
       d="m 87.874451,378.09551 c 0,0 -49.90177,44.12914 -49.99999,83.09663 -0.0982,38.96749 49.99999,233.06082 49.99999,233.06082 0,0 51.108379,-191.06287 49.999999,-233.06082 -1.10838,-41.99795 -49.999999,-83.09663 -49.999999,-83.09663 z"
       id="path2985-6"
       inkscape:connector-curvature="0"
       sodipodi:nodetypes="czczc" />
    <path
       style="fill:#ff0066;stroke:none"
       d="m 348.49381,388.19703 c 0,0 -49.90177,44.12914 -49.99999,83.09663 -0.0982,38.96749 49.99999,233.06082 49.99999,233.06082 0,0 51.10837,-191.06287 49.99999,-233.06082 -1.10837,-41.99795 -49.99999,-83.09663 -49.99999,-83.09663 z"
       id="path2985-6-3"
       inkscape:connector-curvature="0"
       sodipodi:nodetypes="czczc" />
    <path
       style="fill:#ff7f2a;stroke:none"
       d="m 468.70197,381.12596 c 0,0 -49.90177,44.12914 -49.99999,83.09663 -0.0982,38.96749 49.99999,233.06082 49.99999,233.06082 0,0 51.10837,-191.06287 49.99999,-233.06082 -1.10837,-41.99795 -49.99999,-83.09663 -49.99999,-83.09663 z"
       id="path2985-6-3-8"
       inkscape:connector-curvature="0"
       sodipodi:nodetypes="czczc" />
    <path
       style="fill:#d4ff2a;stroke:none"
       d="m 580.82891,382.13611 c 0,0 -49.90177,44.12914 -49.99999,83.09663 -0.0982,38.96749 49.99999,233.06082 49.99999,233.06082 0,0 51.10836,-191.06287 49.99998,-233.06082 -1.10836,-41.99795 -49.99998,-83.09663 -49.99998,-83.09663 z"
       id="path2985-6-3-8-4"
       inkscape:connector-curvature="0"
       sodipodi:nodetypes="czczc" />
    <path
       style="fill:#666666;stroke:none"
       d="m 301.01665,69.998977 c 0,0 -49.90178,44.129143 -50,83.096633 -0.0982,38.96749 50,233.06082 50,233.06082 0,0 51.10838,-191.06287 50,-233.06082 -1.10838,-41.99795 -50,-83.096633 -50,-83.096633 z"
       id="path2985-5"
       inkscape:connector-curvature="0"
       sodipodi:nodetypes="czczc" />
    <path
       style="fill:#d4ff2a;stroke:none"
       d="m 884.88482,53.83654 c 0,0 -49.90177,44.12914 -49.99999,83.09663 -0.0982,38.96749 49.99999,233.06082 49.99999,233.06082 0,0 51.10836,-191.06287 49.99998,-233.06082 -1.10836,-41.99795 -49.99998,-83.09663 -49.99998,-83.09663 z"
       id="path2985-6-3-8-4-2"
       inkscape:connector-curvature="0"
       sodipodi:nodetypes="czczc" />
    <path
       style="fill:#ff7f2a;stroke:none"
       d="m 1018.2249,134.64874 c 0,0 -49.90167,44.12914 -49.99997,83.09663 -0.098,38.96749 49.99997,233.06082 49.99997,233.06082 0,0 51.1084,-191.06287 50,-233.06082 -1.1084,-41.99795 -50,-83.09663 -50,-83.09663 z"
       id="path2985-6-3-8-45"
       inkscape:connector-curvature="0"
       sodipodi:nodetypes="czczc" />
    <path
       style="fill:#ff0066;stroke:none;filter:url(#filter4178)"
       d="m 161.1295,856.4014 c 0,0 44.12911,49.9017 83.09661,50 38.9675,0.098 233.0608,-50 233.0608,-50 0,0 -191.0628,-51.1084 -233.0608,-50 -41.9979,1.1084 -83.09661,50 -83.09661,50 z"
       id="path2985-6-3-86"
       inkscape:connector-curvature="0"
       sodipodi:nodetypes="czczc" />
    <path
       style="fill:#2a7fff;stroke:none"
       d="m 941.45336,352.84169 c 0,0 -49.90178,44.12914 -50,83.09663 -0.0982,38.96749 50,233.06082 50,233.06082 0,0 51.10837,-191.06287 49.99997,-233.06082 -1.1083,-41.99795 -49.99997,-83.09663 -49.99997,-83.09663 z"
       id="path2985-2"
       inkscape:connector-curvature="0"
       sodipodi:nodetypes="czczc" />
    <path
       style="fill:#ab37c8;stroke:none"
       d="m 1094.9965,352.84169 c 0,0 -49.9017,44.12914 -50,83.09663 -0.098,38.96749 50,233.06082 50,233.06082 0,0 51.1084,-191.06287 50,-233.06082 -1.1083,-41.99795 -50,-83.09663 -50,-83.09663 z"
       id="path2985-6-1"
       inkscape:connector-curvature="0"
       sodipodi:nodetypes="czczc" />
    <path
       style="fill:#666666;stroke:none"
       d="m 1018.225,591.23769 c 0,0 -49.90183,44.12915 -50.00005,83.09664 -0.0982,38.96749 50.00005,233.06082 50.00005,233.06082 0,0 51.1083,-191.06287 50,-233.06082 -1.1084,-41.99795 -50,-83.09664 -50,-83.09664 z"
       id="path2985-5-8"
       inkscape:connector-curvature="0"
       sodipodi:nodetypes="czczc" />
    <path
       style="fill:#666666;stroke:none"
       d="m 533.35168,-394.67119 c 0,0 -49.9017,44.12914 -50,83.09663 -0.098,38.96749 50,233.06082 50,233.06082 0,0 51.10843,-191.06287 50.00003,-233.06082 -1.1083,-41.99795 -50.00003,-83.09663 -50.00003,-83.09663 z"
       id="path2985-5-5"
       inkscape:connector-curvature="0"
       sodipodi:nodetypes="czczc" />
    <path
       style="fill:#2a7fff;stroke:none"
       d="m 1078.8341,-172.43763 c 0,0 -49.9018,44.12914 -50,83.096627 -0.098,38.96749 50,233.060823 50,233.060823 0,0 51.1084,-191.062873 50,-233.060823 -1.1084,-41.997947 -50,-83.096627 -50,-83.096627 z"
       id="path2985-1"
       inkscape:connector-curvature="0"
       sodipodi:nodetypes="czczc" />
    <rect
       style="fill:#ff0066;fill-opacity:1;stroke:none"
       id="rect3989"
       width="812.16266"
       height="1369.7668"
       x="-856.60938"
       y="-192.14575"
       ry="0" />
    <path
       style="fill:#ab37c8;stroke:none"
       d="m -581.85668,-26.975663 c 0,0 -49.90177,44.12914 -49.99999,83.09663 -0.0982,38.96749 49.99999,233.060823 49.99999,233.060823 0,0 51.10837,-191.062873 49.99999,-233.060823 -1.10837,-41.99795 -49.99999,-83.09663 -49.99999,-83.09663 z"
       id="path2985-6-32"
       inkscape:connector-curvature="0"
       sodipodi:nodetypes="czczc" />
    <path
       style="fill:#ab37c8;stroke:none"
       d="m -197.99871,-59.300545 c 0,0 -49.90177,44.12914 -49.99999,83.09663 -0.0982,38.96749 49.99999,233.060825 49.99999,233.060825 0,0 51.10837,-191.062872 49.99999,-233.060825 -1.10837,-41.99795 -49.99999,-83.09663 -49.99999,-83.09663 z"
       id="path2985-6-6"
       inkscape:connector-curvature="0"
       sodipodi:nodetypes="czczc" />
    <path
       style="fill:#ab37c8;stroke:none"
       d="m -739.44048,65.958372 c 0,0 -49.90177,44.129138 -49.99999,83.096628 -0.0982,38.96749 49.99999,233.06082 49.99999,233.06082 0,0 51.10838,-191.06287 50,-233.06082 -1.10838,-41.99795 -50,-83.096628 -50,-83.096628 z"
       id="path2985-6-8"
       inkscape:connector-curvature="0"
       sodipodi:nodetypes="czczc" />
    <path
       style="fill:#ab37c8;stroke:none"
       d="m -690.95316,421.53207 c 0,0 -49.90177,44.12914 -49.99999,83.09663 -0.0982,38.96749 49.99999,233.06082 49.99999,233.06082 0,0 51.10838,-191.06287 50,-233.06082 -1.10838,-41.99795 -50,-83.09663 -50,-83.09663 z"
       id="path2985-6-9"
       inkscape:connector-curvature="0"
       sodipodi:nodetypes="czczc" />
    <path
       style="fill:#ab37c8;stroke:none"
       d="m -525.28814,421.53206 c 0,0 -49.90177,44.12914 -49.99999,83.09663 -0.0982,38.96749 49.99999,233.06082 49.99999,233.06082 0,0 51.10838,-191.06287 50,-233.06082 -1.10838,-41.99795 -50,-83.09663 -50,-83.09663 z"
       id="path2985-6-14"
       inkscape:connector-curvature="0"
       sodipodi:nodetypes="czczc" />
    <path
       style="fill:#ab37c8;stroke:none"
       d="m -343.46068,389.20718 c 0,0 -49.90177,44.12914 -49.99999,83.09663 -0.0982,38.96749 49.99999,233.06082 49.99999,233.06082 0,0 51.10838,-191.06287 50,-233.06082 -1.10838,-41.99795 -50,-83.09663 -50,-83.09663 z"
       id="path2985-6-88"
       inkscape:connector-curvature="0"
       sodipodi:nodetypes="czczc" />
    <path
       style="fill:#ab37c8;stroke:none"
       d="m -375.78557,728.61844 c 0,0 -49.90177,44.12914 -49.99999,83.09663 -0.0982,38.96749 49.99999,233.06083 49.99999,233.06083 0,0 51.10838,-191.06288 50,-233.06083 -1.10838,-41.99795 -50,-83.09663 -50,-83.09663 z"
       id="path2985-6-7"
       inkscape:connector-curvature="0"
       sodipodi:nodetypes="czczc" />
    <path
       style="fill:#ab37c8;stroke:none"
       d="m -577.81607,736.69966 c 0,0 -49.90177,44.12914 -49.99999,83.09663 -0.0982,38.96749 49.99999,233.06081 49.99999,233.06081 0,0 51.10837,-191.06286 49.99999,-233.06081 -1.10838,-41.99795 -49.99999,-83.09663 -49.99999,-83.09663 z"
       id="path2985-6-19"
       inkscape:connector-curvature="0"
       sodipodi:nodetypes="czczc" />
  </g>
</svg>
