<?xml version="1.0" encoding="UTF-8" standalone="no"?>
<!-- Created with Inkscape (http://www.inkscape.org/) -->

<svg
   xmlns:dc="http://purl.org/dc/elements/1.1/"
   xmlns:cc="http://creativecommons.org/ns#"
   xmlns:rdf="http://www.w3.org/1999/02/22-rdf-syntax-ns#"
   xmlns:svg="http://www.w3.org/2000/svg"
   xmlns="http://www.w3.org/2000/svg"
   xmlns:sodipodi="http://sodipodi.sourceforge.net/DTD/sodipodi-0.dtd"
   xmlns:inkscape="http://www.inkscape.org/namespaces/inkscape"
   width="500"
   height="500"
   id="svg4016"
   version="1.1"
   inkscape:version="0.48.2 r9819"
   inkscape:export-filename="/Users/ku6ryo/Desktop/music_note.png"
   inkscape:export-xdpi="90"
   inkscape:export-ydpi="90"
   sodipodi:docname="New document 13">
  <defs
     id="defs4018">
    <filter
       inkscape:collect="always"
       id="filter4564"
       x="-0.37016949"
       width="1.740339"
       y="-0.42711866"
       height="1.8542373"
       color-interpolation-filters="sRGB">
      <feGaussianBlur
         inkscape:collect="always"
         stdDeviation="9.3481913"
         id="feGaussianBlur4566" />
    </filter>
    <filter
       inkscape:collect="always"
       id="filter4613"
       x="-0.21833842"
       width="1.4366768"
       y="-0.25184611"
       height="1.5036922">
      <feGaussianBlur
         inkscape:collect="always"
         stdDeviation="5.5131594"
         id="feGaussianBlur4615" />
    </filter>
  </defs>
  <sodipodi:namedview
     id="base"
     pagecolor="#ffffff"
     bordercolor="#666666"
     borderopacity="1.0"
     inkscape:pageopacity="0.0"
     inkscape:pageshadow="2"
     inkscape:zoom="0.49497475"
     inkscape:cx="222.30808"
     inkscape:cy="143.07462"
     inkscape:document-units="px"
     inkscape:current-layer="g4570"
     showgrid="false"
     inkscape:window-width="938"
     inkscape:window-height="697"
     inkscape:window-x="236"
     inkscape:window-y="44"
     inkscape:window-maximized="0" />
  <metadata
     id="metadata4021">
    <rdf:RDF>
      <cc:Work
         rdf:about="">
        <dc:format>image/svg+xml</dc:format>
        <dc:type
           rdf:resource="http://purl.org/dc/dcmitype/StillImage" />
        <dc:title></dc:title>
      </cc:Work>
    </rdf:RDF>
  </metadata>
  <g
     inkscape:label="Layer 1"
     inkscape:groupmode="layer"
     id="layer1"
     transform="translate(0,-552.36218)">
    <g
       id="g4570"
       transform="matrix(0.99944309,-0.03336933,0.03336933,0.99944309,-18.966824,14.712564)">
      <path
         transform="matrix(0.75647322,0.43601036,-0.43601036,0.75647322,166.62886,253.6034)"
         d="m 377.14286,620.93359 a 107.14286,80 0 1 1 -214.28572,0 107.14286,80 0 1 1 214.28572,0 z"
         sodipodi:ry="80"
         sodipodi:rx="107.14286"
         sodipodi:cy="620.93359"
         sodipodi:cx="270"
         id="path4024"
         style="opacity:0.98000003999999996;fill:#1a1a1a;fill-opacity:1;stroke:none;stroke-width:0.99985060000000003;stroke-miterlimit:4;stroke-dasharray:none"
         sodipodi:type="arc" />
      <path
         inkscape:connector-curvature="0"
         id="path4026"
         d="M 172.48825,899.67032 375.80291,677.64572 363.32962,665.17243 162.50961,889.69169 z"
         style="fill:#1a1a1a;stroke:none;stroke-width:0.87300000000000000;stroke-linecap:butt;stroke-linejoin:miter;stroke-opacity:1;stroke-miterlimit:4;stroke-dasharray:none" />
      <path
         sodipodi:nodetypes="czzczzcc"
         inkscape:connector-curvature="0"
         id="path4028"
         d="m 363.17829,665.4621 c 0,0 38.82581,28.71507 49.79154,61.40881 10.96573,32.69374 4.74957,33.50301 12.78893,62.46586 8.03935,28.96284 43.87052,58.71311 43.87052,58.71311 0,0 -66.98096,-9.88452 -84.64108,-38.42724 -17.66012,-28.54272 -9.70088,-31.41556 -23.42257,-61.0672 -13.7217,-29.65165 -37.9625,-30.07425 -37.9625,-30.07425 z"
         style="fill:#1a1a1a;stroke:none;stroke-width:0.87300000000000000;stroke-linecap:butt;stroke-linejoin:miter;stroke-opacity:1;stroke-miterlimit:4;stroke-dasharray:none" />
      <path
         transform="matrix(0.74242482,0,0,0.74242482,-113.38659,194.92787)"
         d="m 266.68028,820.0271 a 30.304577,26.263966 0 1 1 -60.60915,0 30.304577,26.263966 0 1 1 60.60915,0 z"
         sodipodi:ry="26.263966"
         sodipodi:rx="30.304577"
         sodipodi:cy="820.0271"
         sodipodi:cx="236.3757"
         id="path4030"
         style="opacity:0.98000003999999996;fill:#ffffff;fill-opacity:1;stroke:none;filter:url(#filter4613)"
         sodipodi:type="arc" />
      <path
         sodipodi:nodetypes="zzzzzzcczzcczzzzz"
         inkscape:connector-curvature="0"
         id="path4568"
         d="m 89.667941,790.94284 c -2.91671,17.55493 4.553139,28.32433 10.877429,59.03239 6.3243,30.70807 5.44981,63.17442 4.16843,79.60455 -1.28139,16.43012 -7.540088,18.00343 -6.448228,25.79292 1.09186,7.78948 6.029288,18.19338 10.301888,17.8472 4.27258,-0.34617 7.69103,-2.082 11.19221,-9.80273 3.50118,-7.72073 -3.40248,-24.28292 -3.79966,-42.82619 1.37054,-15.56141 -5.80999,-91.45476 9.74873,-92.03347 11.6288,0.46247 11.05918,20.17177 12.45131,38.13621 1.39212,17.96444 -2.15669,27.55346 -2.27981,37.09314 -0.12311,9.53968 -2.39928,23.77533 9.85675,20.235 4.50598,-1.52773 9.01483,-8.38258 10.56264,-14.86148 -2.67092,-16.96935 -5.05128,-34.28792 -4.83617,-48.36172 0.21512,-14.07381 3.25528,-15.19224 6.17165,-23.51313 2.91639,-8.3209 8.22384,-11.89496 9.41158,-26.998 1.18775,-15.10305 -7.96557,-37.64743 -36.17119,-43.93252 -28.20564,-6.2851 -38.290858,7.03288 -41.207559,24.58783 z"
         style="fill:#00f700;fill-opacity:1;stroke:none" />
    </g>
  </g>
</svg>
